<svg xmlns="http://www.w3.org/2000/svg" viewBox="0 0 1080 1920" role="img" aria-label="Fullscreen Cartoon city mobile background card for 1080x1920 vertical game">
  <title>City Fullscreen Background</title>
  <desc>Fullscreen 1080 by 1920 mobile game background generated from the original card composition using vector cover scaling. The source card is preserved under assets/backgrounds/cards.</desc>
  <rect width="1080" height="1920" fill="#071017"/>
  <g transform="translate(-122.069 -33.103) scale(4.137931)">

  <defs>
    <linearGradient id="city_sky" x1="0" y1="0" x2="0" y2="1">
      <stop offset="0%" stop-color="#7ed8ff"/>
      <stop offset="58%" stop-color="#bdefff"/>
      <stop offset="100%" stop-color="#e8f8ff"/>
    </linearGradient>
    <linearGradient id="city_road" x1="0" y1="0" x2="0" y2="1">
      <stop offset="0%" stop-color="#727b90"/>
      <stop offset="100%" stop-color="#4b5266"/>
    </linearGradient>
    <filter id="city_shadow" x="-20%" y="-20%" width="140%" height="140%">
      <feDropShadow dx="0" dy="8" stdDeviation="8" flood-color="#21415f" flood-opacity="0.25"/>
    </filter>
    <clipPath id="city_clip">
      <rect x="8" y="8" width="304" height="464" rx="34"/>
    </clipPath>
  </defs>
  <rect x="8" y="8" width="304" height="464" rx="34" fill="#d7f4ff" filter="url(#city_shadow)"/>
  <g clip-path="url(#city_clip)">
    <rect x="8" y="8" width="304" height="464" fill="url(#city_sky)"/>
    <circle cx="266" cy="72" r="34" fill="#ffe66d"/>
    <circle cx="256" cy="64" r="9" fill="#fff59a" opacity="0.75"/>
    <g fill="#ffffff" opacity="0.9">
      <ellipse cx="70" cy="82" rx="36" ry="15"/>
      <ellipse cx="102" cy="82" rx="24" ry="12"/>
      <ellipse cx="58" cy="73" rx="18" ry="10"/>
      <ellipse cx="203" cy="117" rx="31" ry="13"/>
      <ellipse cx="230" cy="118" rx="20" ry="10"/>
    </g>
    <path d="M8 312 C58 292 86 306 134 286 C190 263 244 277 312 250 L312 472 L8 472 Z" fill="#6fc179"/>
    <path d="M8 330 C72 307 118 323 172 296 C226 269 267 289 312 268 L312 472 L8 472 Z" fill="#5caf69"/>
    <g stroke="#3a5666" stroke-width="5" stroke-linejoin="round">
      <rect x="32" y="175" width="43" height="151" rx="6" fill="#508bb9"/>
      <rect x="82" y="135" width="55" height="191" rx="7" fill="#6a8ed3"/>
      <rect x="144" y="200" width="42" height="126" rx="6" fill="#7cb4d7"/>
      <rect x="191" y="150" width="64" height="176" rx="8" fill="#566fb0"/>
      <rect x="262" y="213" width="38" height="113" rx="6" fill="#74a6c7"/>
    </g>
    <g fill="#ffe97a" opacity="0.95">
      <rect x="43" y="196" width="10" height="13" rx="2"/><rect x="58" y="196" width="10" height="13" rx="2"/>
      <rect x="43" y="224" width="10" height="13" rx="2"/><rect x="58" y="224" width="10" height="13" rx="2"/>
      <rect x="97" y="158" width="11" height="14" rx="2"/><rect x="115" y="158" width="11" height="14" rx="2"/>
      <rect x="97" y="189" width="11" height="14" rx="2"/><rect x="115" y="189" width="11" height="14" rx="2"/>
      <rect x="156" y="222" width="10" height="13" rx="2"/><rect x="172" y="222" width="10" height="13" rx="2"/>
      <rect x="207" y="175" width="11" height="14" rx="2"/><rect x="229" y="175" width="11" height="14" rx="2"/>
      <rect x="207" y="207" width="11" height="14" rx="2"/><rect x="229" y="207" width="11" height="14" rx="2"/>
      <rect x="274" y="235" width="10" height="13" rx="2"/>
    </g>
    <path d="M134 472 L178 472 L167 320 L146 320 Z" fill="url(#city_road)"/>
    <path d="M156 332 L156 458" stroke="#ffd45c" stroke-width="6" stroke-dasharray="17 20" stroke-linecap="round"/>
    <g transform="translate(45 337)">
      <rect x="0" y="20" width="58" height="30" rx="11" fill="#ff6d6d" stroke="#9b3042" stroke-width="4"/>
      <path d="M13 20 L23 6 L43 6 L54 20 Z" fill="#ff9b8d" stroke="#9b3042" stroke-width="4" stroke-linejoin="round"/>
      <circle cx="16" cy="51" r="8" fill="#30394f"/><circle cx="45" cy="51" r="8" fill="#30394f"/>
      <circle cx="16" cy="51" r="3" fill="#96a2b7"/><circle cx="45" cy="51" r="3" fill="#96a2b7"/>
    </g>
    <rect x="8" y="8" width="304" height="464" rx="34" fill="none" stroke="#ffffff" stroke-width="6" opacity="0.55"/>
    <rect x="14" y="14" width="292" height="452" rx="29" fill="none" stroke="#25566e" stroke-width="3" opacity="0.25"/>
  </g>

  </g>
</svg>
