<svg xmlns="http://www.w3.org/2000/svg" viewBox="0 0 1080 1920" role="img" aria-label="Fullscreen Cartoon space mobile background card for 1080x1920 vertical game">
  <title>Space Fullscreen Background</title>
  <desc>Fullscreen 1080 by 1920 mobile game background generated from the original card composition using vector cover scaling. The source card is preserved under assets/backgrounds/cards.</desc>
  <rect width="1080" height="1920" fill="#071017"/>
  <g transform="translate(-122.069 -33.103) scale(4.137931)">

  <defs>
    <radialGradient id="space_bg" cx="50%" cy="35%" r="80%">
      <stop offset="0%" stop-color="#3947a8"/>
      <stop offset="56%" stop-color="#18265f"/>
      <stop offset="100%" stop-color="#070d2a"/>
    </radialGradient>
    <radialGradient id="space_planet" cx="35%" cy="30%" r="65%">
      <stop offset="0%" stop-color="#ffe6a8"/>
      <stop offset="70%" stop-color="#ff8d6b"/>
      <stop offset="100%" stop-color="#d44f7f"/>
    </radialGradient>
    <filter id="space_shadow" x="-20%" y="-20%" width="140%" height="140%">
      <feDropShadow dx="0" dy="8" stdDeviation="8" flood-color="#08072d" flood-opacity="0.42"/>
    </filter>
    <clipPath id="space_clip">
      <rect x="8" y="8" width="304" height="464" rx="34"/>
    </clipPath>
  </defs>
  <rect x="8" y="8" width="304" height="464" rx="34" fill="#111945" filter="url(#space_shadow)"/>
  <g clip-path="url(#space_clip)">
    <rect x="8" y="8" width="304" height="464" fill="url(#space_bg)"/>
    <path d="M-7 338 C62 302 109 332 166 292 C225 250 266 266 331 232 L331 481 L-7 481 Z" fill="#242e78" opacity="0.72"/>
    <path d="M-8 370 C61 332 120 364 178 322 C236 281 270 302 328 267 L328 481 L-8 481 Z" fill="#151d54"/>
    <g fill="#ffffff">
      <circle cx="52" cy="71" r="3"/><circle cx="92" cy="132" r="2.4"/><circle cx="151" cy="73" r="2"/><circle cx="220" cy="112" r="3"/>
      <circle cx="281" cy="71" r="2.5"/><circle cx="45" cy="215" r="2"/><circle cx="267" cy="221" r="2.3"/><circle cx="118" cy="244" r="2"/>
      <circle cx="236" cy="313" r="2"/><circle cx="76" cy="341" r="2.6"/><circle cx="183" cy="194" r="2.2"/>
    </g>
    <g stroke="#fff6b3" stroke-width="3" stroke-linecap="round" opacity="0.95">
      <path d="M41 151 L41 169 M32 160 L50 160"/>
      <path d="M261 163 L261 183 M251 173 L271 173"/>
      <path d="M148 113 L148 128 M141 121 L156 121"/>
      <path d="M211 256 L211 273 M202 264 L220 264"/>
    </g>
    <g transform="translate(56 169) rotate(-16)">
      <ellipse cx="73" cy="43" rx="82" ry="18" fill="none" stroke="#f6d891" stroke-width="12" opacity="0.78"/>
      <circle cx="73" cy="43" r="44" fill="url(#space_planet)" stroke="#7b3d89" stroke-width="5"/>
      <path d="M39 36 C56 48 84 51 111 40" stroke="#ffbd75" stroke-width="8" stroke-linecap="round" opacity="0.75"/>
      <path d="M43 58 C64 67 84 68 104 58" stroke="#f36f75" stroke-width="7" stroke-linecap="round" opacity="0.65"/>
    </g>
    <g transform="translate(204 321) rotate(21)">
      <path d="M39 0 C56 20 69 45 69 78 C47 72 23 72 0 78 C2 48 15 20 39 0 Z" fill="#e9f5ff" stroke="#6ea7d7" stroke-width="4"/>
      <path d="M25 25 C36 16 44 16 54 25 L47 54 H31 Z" fill="#6dd8ff" stroke="#4093c1" stroke-width="3"/>
      <path d="M10 72 L1 97 L26 81 Z" fill="#ff785f" stroke="#ba453c" stroke-width="3"/>
      <path d="M59 72 L77 97 L52 81 Z" fill="#ff785f" stroke="#ba453c" stroke-width="3"/>
      <path d="M31 80 C28 95 35 105 39 118 C43 105 50 95 47 80 Z" fill="#ffd15e"/>
    </g>
    <g transform="translate(49 331)">
      <circle cx="0" cy="0" r="18" fill="#7de1c8" stroke="#3a8f91" stroke-width="4"/>
      <circle cx="-6" cy="-5" r="5" fill="#bff7e8" opacity="0.8"/>
      <path d="M-26 5 C-3 18 21 14 31 -8" stroke="#b8fff0" stroke-width="5" fill="none" opacity="0.48"/>
    </g>
    <rect x="8" y="8" width="304" height="464" rx="34" fill="none" stroke="#ffffff" stroke-width="6" opacity="0.28"/>
    <rect x="14" y="14" width="292" height="452" rx="29" fill="none" stroke="#9facff" stroke-width="3" opacity="0.22"/>
  </g>

  </g>
</svg>
