<?xml version="1.0" encoding="UTF-8"?>
<svg xmlns="http://www.w3.org/2000/svg" viewBox="0 0 160 160" role="img" aria-labelledby="title desc">
  <title id="title">Toilet Projectile Poop</title>
  <desc id="desc">Standalone cartoon SVG game asset with transparent background.</desc>

  <defs>
    <linearGradient id="ceramic" x1="32" y1="24" x2="124" y2="138" gradientUnits="userSpaceOnUse">
      <stop offset="0" stop-color="#ffffff"/>
      <stop offset="0.55" stop-color="#f3fbff"/>
      <stop offset="1" stop-color="#cfe3ef"/>
    </linearGradient>
    <linearGradient id="ceramicShade" x1="40" y1="64" x2="122" y2="134" gradientUnits="userSpaceOnUse">
      <stop offset="0" stop-color="#f8fdff"/>
      <stop offset="1" stop-color="#b6d0df"/>
    </linearGradient>
    <linearGradient id="gold" x1="48" y1="15" x2="104" y2="49" gradientUnits="userSpaceOnUse">
      <stop offset="0" stop-color="#fff16a"/>
      <stop offset="0.5" stop-color="#f7b928"/>
      <stop offset="1" stop-color="#d88611"/>
    </linearGradient>
    <linearGradient id="poopGrad" x1="34" y1="31" x2="114" y2="125" gradientUnits="userSpaceOnUse">
      <stop offset="0" stop-color="#b6652e"/>
      <stop offset="0.55" stop-color="#7a3f1d"/>
      <stop offset="1" stop-color="#4a2412"/>
    </linearGradient>
    <radialGradient id="water" cx="76" cy="88" r="43" gradientUnits="userSpaceOnUse">
      <stop offset="0" stop-color="#54d5ff"/>
      <stop offset="0.68" stop-color="#168bc7"/>
      <stop offset="1" stop-color="#0b3a66"/>
    </radialGradient>
    <filter id="softShadow" x="-20%" y="-20%" width="140%" height="140%">
      <feDropShadow dx="0" dy="4" stdDeviation="2" flood-color="#1c2733" flood-opacity="0.22"/>
    </filter>
  </defs>

  <style><![CDATA[
    .ink{stroke:#202832;stroke-width:6;stroke-linecap:round;stroke-linejoin:round;}
    .ink4{stroke:#202832;stroke-width:4;stroke-linecap:round;stroke-linejoin:round;}
    .ink3{stroke:#202832;stroke-width:3;stroke-linecap:round;stroke-linejoin:round;}
    .shine{stroke:#ffffff;stroke-width:4;stroke-linecap:round;opacity:.78;}
    .anger{stroke:#e33c32;stroke-width:5;stroke-linecap:round;stroke-linejoin:round;}
    .motion{stroke:#78401d;stroke-width:4;stroke-linecap:round;stroke-linejoin:round;}
  ]]></style>

  <path class="ink4" fill="none" d="M39 43 C31 36 33 27 43 23" opacity="0.5"/>
  <path class="ink4" fill="none" d="M121 48 C133 43 134 34 124 29" opacity="0.5"/>

  <g transform="translate(82 84) scale(1.08) translate(-80 -82)">

  <path class="motion" fill="none" d="M34 73 C23 69 18 63 13 54 M35 95 C23 96 17 101 11 109 M39 84 L22 84"/>
    <path class="ink" fill="url(#poopGrad)" d="M52 108 C45 97 53 86 66 84 C58 75 64 65 77 64 C72 56 78 47 88 45 C86 37 92 32 101 30 C98 42 111 43 111 55 C111 63 104 68 96 68 C108 73 115 82 112 94 C125 99 122 117 105 123 C88 130 61 126 52 108 Z"/>
    <path class="ink4" fill="#9b5428" d="M67 84 C79 74 101 75 111 91" opacity="0.65"/>
    <path class="ink4" fill="none" d="M64 66 C73 61 88 62 96 68" opacity="0.7"/>
    <path class="ink3" d="M64 82 L73 78 M87 78 L96 82"/>
    <ellipse cx="70" cy="88" rx="3.8" ry="4.8" fill="#202832"/>
    <ellipse cx="91" cy="88" rx="3.8" ry="4.8" fill="#202832"/>
    <path class="ink3" fill="none" d="M72 102 Q80 96 89 102"/>
    <path class="shine" d="M62 103 C58 96 61 91 69 89"/>
  </g>
  <path class="motion" fill="none" d="M33 119 C23 127 17 136 13 148 M117 121 C127 129 136 133 147 136" opacity="0.55"/>

</svg>
