<?xml version="1.0" encoding="UTF-8"?>
<svg xmlns="http://www.w3.org/2000/svg" viewBox="0 0 160 160" role="img" aria-labelledby="title desc">
  <title id="title">Toilet Boss Front</title>
  <desc id="desc">Standalone cartoon SVG game asset with transparent background.</desc>

  <defs>
    <linearGradient id="ceramic" x1="32" y1="24" x2="124" y2="138" gradientUnits="userSpaceOnUse">
      <stop offset="0" stop-color="#ffffff"/>
      <stop offset="0.55" stop-color="#f3fbff"/>
      <stop offset="1" stop-color="#cfe3ef"/>
    </linearGradient>
    <linearGradient id="ceramicShade" x1="40" y1="64" x2="122" y2="134" gradientUnits="userSpaceOnUse">
      <stop offset="0" stop-color="#f8fdff"/>
      <stop offset="1" stop-color="#b6d0df"/>
    </linearGradient>
    <linearGradient id="gold" x1="48" y1="15" x2="104" y2="49" gradientUnits="userSpaceOnUse">
      <stop offset="0" stop-color="#fff16a"/>
      <stop offset="0.5" stop-color="#f7b928"/>
      <stop offset="1" stop-color="#d88611"/>
    </linearGradient>
    <linearGradient id="poopGrad" x1="34" y1="31" x2="114" y2="125" gradientUnits="userSpaceOnUse">
      <stop offset="0" stop-color="#b6652e"/>
      <stop offset="0.55" stop-color="#7a3f1d"/>
      <stop offset="1" stop-color="#4a2412"/>
    </linearGradient>
    <radialGradient id="water" cx="76" cy="88" r="43" gradientUnits="userSpaceOnUse">
      <stop offset="0" stop-color="#54d5ff"/>
      <stop offset="0.68" stop-color="#168bc7"/>
      <stop offset="1" stop-color="#0b3a66"/>
    </radialGradient>
    <filter id="softShadow" x="-20%" y="-20%" width="140%" height="140%">
      <feDropShadow dx="0" dy="4" stdDeviation="2" flood-color="#1c2733" flood-opacity="0.22"/>
    </filter>
  </defs>

  <style><![CDATA[
    .ink{stroke:#202832;stroke-width:6;stroke-linecap:round;stroke-linejoin:round;}
    .ink4{stroke:#202832;stroke-width:4;stroke-linecap:round;stroke-linejoin:round;}
    .ink3{stroke:#202832;stroke-width:3;stroke-linecap:round;stroke-linejoin:round;}
    .shine{stroke:#ffffff;stroke-width:4;stroke-linecap:round;opacity:.78;}
    .anger{stroke:#e33c32;stroke-width:5;stroke-linecap:round;stroke-linejoin:round;}
    .motion{stroke:#78401d;stroke-width:4;stroke-linecap:round;stroke-linejoin:round;}
  ]]></style>

  <g filter="url(#softShadow)">

  <ellipse cx="80" cy="142" rx="52" ry="9" fill="#1c2733" opacity="0.18"/>
  <path class="ink" fill="url(#ceramicShade)" d="M51 100 C44 110 42 126 52 137 C61 147 99 147 108 137 C118 125 115 109 108 100 Z"/>
  <path class="ink" fill="url(#ceramic)" d="M43 77 C51 66 107 66 117 77 C128 91 114 108 80 109 C45 108 32 91 43 77 Z"/>
  <path class="ink" fill="url(#ceramic)" d="M42 74 C54 59 105 59 118 74 C126 83 115 95 80 96 C45 95 33 83 42 74 Z"/>
  <path class="shine" d="M54 73 C66 66 94 66 106 73"/>
  <rect class="ink" x="44" y="40" width="72" height="45" rx="14" fill="url(#ceramic)"/>
  <rect class="ink4" x="111" y="52" width="11" height="17" rx="5" fill="#d6edf8"/>
  <path class="shine" d="M55 49 C65 43 94 43 104 50"/>
  <g>
    <path class="ink" fill="url(#gold)" d="M50 39 L56 18 L69 33 L78 15 L87 33 L100 18 L106 39 Z"/>
    <rect class="ink" x="53" y="38" width="50" height="14" rx="5" fill="url(#gold)"/>
    <circle class="ink3" cx="66" cy="43" r="3.5" fill="#e84258"/>
    <circle class="ink3" cx="78" cy="40" r="3.7" fill="#45c7ff"/>
    <circle class="ink3" cx="90" cy="43" r="3.5" fill="#7ad94a"/>
    <path class="shine" d="M58 40 L64 24"/>
  </g>
  <path class="ink4" d="M55 56 L70 51 M90 51 L105 56"/>
  <ellipse class="ink3" cx="64" cy="62" rx="5" ry="6" fill="#202832"/>
  <ellipse class="ink3" cx="96" cy="62" rx="5" ry="6" fill="#202832"/>
  <circle cx="62" cy="59" r="1.6" fill="#fff"/>
  <circle cx="94" cy="59" r="1.6" fill="#fff"/>
  <path class="ink4" fill="none" d="M66 75 Q80 68 94 75"/>
  <path class="ink4" fill="#4c2a1b" d="M79 74 C72 65 61 68 56 76 C64 76 70 83 79 74 Z"/>
  <path class="ink4" fill="#4c2a1b" d="M81 74 C88 65 99 68 104 76 C96 76 90 83 81 74 Z"/>
  </g>
  <path class="anger" d="M30 49 L22 39 M128 49 L138 39"/>

</svg>
