<svg xmlns="http://www.w3.org/2000/svg" viewBox="0 0 128 128" role="img" aria-label="Clock slow item">
  <defs>
    <linearGradient id="face" x1="31" y1="25" x2="95" y2="104" gradientUnits="userSpaceOnUse">
      <stop offset="0%" stop-color="#E8FCFF"/>
      <stop offset="100%" stop-color="#7EDCFF"/>
    </linearGradient>
    <linearGradient id="rim" x1="30" y1="26" x2="99" y2="103" gradientUnits="userSpaceOnUse">
      <stop offset="0%" stop-color="#7B76FF"/>
      <stop offset="100%" stop-color="#2F6BD9"/>
    </linearGradient>
  </defs>
  <circle cx="64" cy="68" r="49" fill="#F6F0FF"/>
  <path d="M43 20 L35 10" stroke="#5C54B8" stroke-width="6" stroke-linecap="round"/>
  <path d="M85 20 L93 10" stroke="#5C54B8" stroke-width="6" stroke-linecap="round"/>
  <circle cx="64" cy="66" r="42" fill="url(#rim)" stroke="#372B84" stroke-width="4"/>
  <circle cx="64" cy="66" r="32" fill="url(#face)"/>
  <circle cx="64" cy="66" r="4.5" fill="#392D7A"/>
  <path d="M64 66 L64 45" stroke="#392D7A" stroke-width="5" stroke-linecap="round"/>
  <path d="M64 66 L79 76" stroke="#FF6E85" stroke-width="5" stroke-linecap="round"/>
  <g stroke="#392D7A" stroke-width="3" stroke-linecap="round" opacity="0.8">
    <path d="M64 36 V41"/>
    <path d="M64 91 V96"/>
    <path d="M34 66 H39"/>
    <path d="M89 66 H94"/>
  </g>
  <path d="M24 42 C16 51 15 66 25 75 C32 82 44 82 50 75 C56 68 53 58 45 56 C39 54 33 58 34 64" fill="none" stroke="#72D95A" stroke-width="7" stroke-linecap="round"/>
  <circle cx="42" cy="62" r="3" fill="#2E7D32"/>
  <path d="M103 89 C111 83 114 72 108 64 C103 57 92 57 88 64" fill="none" stroke="#FFD15E" stroke-width="7" stroke-linecap="round" opacity="0.95"/>
  <text x="64" y="119" text-anchor="middle" font-family="Arial, sans-serif" font-size="15" font-weight="900" fill="#5C54B8" stroke="#FFFFFF" stroke-width="3" paint-order="stroke">SLOW</text>
</svg>
