<svg xmlns="http://www.w3.org/2000/svg" viewBox="0 0 128 128" role="img" aria-label="Gold coin with poop icon variant 1">
  <defs>
    <radialGradient id="gold" cx="36%" cy="28%" r="65%">
      <stop offset="0%" stop-color="#FFF7A8"/>
      <stop offset="54%" stop-color="#FFD13B"/>
      <stop offset="100%" stop-color="#E49700"/>
    </radialGradient>
    <linearGradient id="poop" x1="42" y1="42" x2="87" y2="89" gradientUnits="userSpaceOnUse">
      <stop offset="0%" stop-color="#B87943"/>
      <stop offset="100%" stop-color="#7A4328"/>
    </linearGradient>
  </defs>
  <circle cx="64" cy="64" r="54" fill="url(#gold)" stroke="#AD6900" stroke-width="7"/>
  <circle cx="64" cy="64" r="42" fill="none" stroke="#FFF2A0" stroke-width="6" opacity="0.75"/>
  <path d="M42 76 C42 65 51 58 64 58 C77 58 86 65 86 76 C86 89 42 89 42 76 Z" fill="url(#poop)" stroke="#5C2E1A" stroke-width="4" stroke-linejoin="round"/>
  <path d="M50 61 C50 52 57 47 66 47 C75 47 81 52 81 61 C81 70 50 70 50 61 Z" fill="#9B5D35" stroke="#5C2E1A" stroke-width="4" stroke-linejoin="round"/>
  <path d="M58 48 C57 40 65 35 70 40 C76 46 68 52 59 52 Z" fill="#B87943" stroke="#5C2E1A" stroke-width="4" stroke-linejoin="round"/>
  <circle cx="57" cy="74" r="3.5" fill="#24140D"/>
  <circle cx="72" cy="74" r="3.5" fill="#24140D"/>
  <path d="M60 81 C63 84 68 84 71 81" stroke="#24140D" stroke-width="3" fill="none" stroke-linecap="round"/>
  <ellipse cx="50" cy="55" rx="6" ry="3" fill="#D89C61" opacity="0.42" transform="rotate(-20 50 55)"/>
  <path d="M35 35 C44 27 54 24 65 25" fill="none" stroke="#FFFFFF" stroke-width="7" stroke-linecap="round" opacity="0.55"/>
  <circle cx="94" cy="36" r="5" fill="#FFFFFF" opacity="0.65"/>
</svg>
