<svg xmlns="http://www.w3.org/2000/svg" viewBox="0 0 128 128" role="img" aria-label="Magnet coin item">
  <defs>
    <linearGradient id="magnetRed" x1="31" y1="24" x2="31" y2="105" gradientUnits="userSpaceOnUse">
      <stop offset="0%" stop-color="#FF6E85"/>
      <stop offset="100%" stop-color="#E92350"/>
    </linearGradient>
    <linearGradient id="magnetBlue" x1="96" y1="24" x2="96" y2="105" gradientUnits="userSpaceOnUse">
      <stop offset="0%" stop-color="#62DBFF"/>
      <stop offset="100%" stop-color="#1686E8"/>
    </linearGradient>
    <radialGradient id="coin" cx="38%" cy="32%" r="65%">
      <stop offset="0%" stop-color="#FFF8A7"/>
      <stop offset="60%" stop-color="#FFC928"/>
      <stop offset="100%" stop-color="#E99B05"/>
    </radialGradient>
  </defs>
  <circle cx="64" cy="64" r="54" fill="#FFF7EC"/>
  <path d="M31 42 V79 C31 98 45 111 64 111 C83 111 97 98 97 79 V42" fill="none" stroke="#51324A" stroke-width="23" stroke-linecap="round"/>
  <path d="M31 42 V79 C31 98 45 111 64 111" fill="none" stroke="url(#magnetRed)" stroke-width="17" stroke-linecap="round"/>
  <path d="M97 42 V79 C97 98 83 111 64 111" fill="none" stroke="url(#magnetBlue)" stroke-width="17" stroke-linecap="round"/>
  <rect x="19" y="29" width="25" height="26" rx="6" fill="#F3F7FF" stroke="#51324A" stroke-width="4"/>
  <rect x="84" y="29" width="25" height="26" rx="6" fill="#F3F7FF" stroke="#51324A" stroke-width="4"/>
  <path d="M50 41 C59 34 70 34 78 41" fill="none" stroke="#FFD76E" stroke-width="5" stroke-linecap="round" stroke-dasharray="1 10"/>
  <circle cx="64" cy="36" r="21" fill="url(#coin)" stroke="#BE7100" stroke-width="4"/>
  <circle cx="64" cy="36" r="14" fill="none" stroke="#FFF2A0" stroke-width="4" opacity="0.8"/>
  <path d="M55 41 C55 36 59 33 64 33 C69 33 73 36 73 41 C73 47 55 47 55 41 Z" fill="#8B542D"/>
  <path d="M58 34 C59 29 64 27 67 31 C70 34 67 37 63 37 C59 37 57 36 58 34 Z" fill="#A86A37"/>
  <circle cx="60" cy="41" r="1.7" fill="#3B2417"/>
  <circle cx="68" cy="41" r="1.7" fill="#3B2417"/>
  <path d="M61 45 C63 46 66 46 68 45" stroke="#3B2417" stroke-width="1.6" stroke-linecap="round" fill="none"/>
  <path d="M17 68 C33 57 43 51 54 43" fill="none" stroke="#70D7FF" stroke-width="5" stroke-linecap="round" stroke-dasharray="3 9" opacity="0.9"/>
  <path d="M111 69 C94 57 84 51 74 43" fill="none" stroke="#FF79A0" stroke-width="5" stroke-linecap="round" stroke-dasharray="3 9" opacity="0.9"/>
</svg>
