<svg xmlns="http://www.w3.org/2000/svg" viewBox="0 0 128 128" role="img" aria-label="Umbrella shield item">
  <defs>
    <radialGradient id="glow" cx="50%" cy="45%" r="55%">
      <stop offset="0%" stop-color="#E9FBFF" stop-opacity="0.95"/>
      <stop offset="100%" stop-color="#8FEAFF" stop-opacity="0.25"/>
    </radialGradient>
    <linearGradient id="canopy" x1="20" y1="24" x2="100" y2="72" gradientUnits="userSpaceOnUse">
      <stop offset="0%" stop-color="#FF78A8"/>
      <stop offset="55%" stop-color="#FF4D7D"/>
      <stop offset="100%" stop-color="#D83467"/>
    </linearGradient>
    <linearGradient id="shield" x1="30" y1="14" x2="96" y2="114" gradientUnits="userSpaceOnUse">
      <stop offset="0%" stop-color="#BDF6FF" stop-opacity="0.82"/>
      <stop offset="100%" stop-color="#38BFF0" stop-opacity="0.34"/>
    </linearGradient>
  </defs>
  <circle cx="64" cy="64" r="54" fill="url(#glow)"/>
  <path d="M64 12 C84 18 101 24 111 32 C107 74 93 99 64 116 C35 99 21 74 17 32 C27 24 44 18 64 12 Z" fill="url(#shield)" stroke="#21A4D7" stroke-width="5" stroke-linejoin="round"/>
  <path d="M20 58 C27 33 45 22 64 22 C83 22 101 33 108 58 C98 52 88 54 82 62 C73 52 55 52 46 62 C40 54 30 52 20 58 Z" fill="url(#canopy)" stroke="#B61E54" stroke-width="4" stroke-linejoin="round"/>
  <path d="M28 56 C35 40 48 31 64 29 C81 31 94 40 101 56" fill="none" stroke="#FFB3CC" stroke-width="5" stroke-linecap="round" opacity="0.85"/>
  <path d="M64 25 V86" fill="none" stroke="#7B3D49" stroke-width="6" stroke-linecap="round"/>
  <path d="M64 86 C64 100 45 102 45 88" fill="none" stroke="#7B3D49" stroke-width="7" stroke-linecap="round"/>
  <path d="M36 47 C45 38 53 34 64 33" fill="none" stroke="#FFFFFF" stroke-width="4" stroke-linecap="round" opacity="0.45"/>
  <circle cx="98" cy="35" r="5" fill="#FFFFFF" opacity="0.78"/>
  <circle cx="27" cy="81" r="4" fill="#FFFFFF" opacity="0.62"/>
</svg>
