<svg xmlns="http://www.w3.org/2000/svg" viewBox="0 0 128 128" role="img" aria-label="Settings button">
  <defs>
    <linearGradient id="btn" x1="20" y1="14" x2="108" y2="114" gradientUnits="userSpaceOnUse">
      <stop offset="0%" stop-color="#A98BFF"/>
      <stop offset="100%" stop-color="#6450E5"/>
    </linearGradient>
    <filter id="shadow" x="-20%" y="-20%" width="140%" height="145%">
      <feDropShadow dx="0" dy="6" stdDeviation="4" flood-color="#34475F" flood-opacity="0.26"/>
    </filter>
  </defs>
  <rect x="14" y="14" width="100" height="100" rx="28" fill="url(#btn)" stroke="#4E3ABA" stroke-width="6" filter="url(#shadow)"/>
  <path d="M34 29 H89" stroke="#FFFFFF" stroke-width="8" stroke-linecap="round" opacity="0.42"/>
  <g transform="translate(64 64)">
    <circle r="13" fill="#FFFFFF" stroke="#3C2C8D" stroke-width="5"/>
    <g fill="#FFFFFF" stroke="#3C2C8D" stroke-width="4" stroke-linejoin="round">
      <rect x="-7" y="-40" width="14" height="16" rx="4"/>
      <rect x="-7" y="24" width="14" height="16" rx="4"/>
      <rect x="24" y="-7" width="16" height="14" rx="4"/>
      <rect x="-40" y="-7" width="16" height="14" rx="4"/>
      <rect x="16" y="-31" width="14" height="16" rx="4" transform="rotate(45 23 -23)"/>
      <rect x="16" y="15" width="14" height="16" rx="4" transform="rotate(-45 23 23)"/>
      <rect x="-30" y="15" width="14" height="16" rx="4" transform="rotate(45 -23 23)"/>
      <rect x="-30" y="-31" width="14" height="16" rx="4" transform="rotate(-45 -23 -23)"/>
    </g>
  </g>
</svg>
