<svg xmlns="http://www.w3.org/2000/svg" viewBox="0 0 128 128">
  <defs>
    <linearGradient id="poop_large_angry_03_body" x1="28" y1="20" x2="98" y2="120" gradientUnits="userSpaceOnUse">
      <stop offset="0" stop-color="#9b5633"/>
      <stop offset="0.48" stop-color="#67341f"/>
      <stop offset="1" stop-color="#3f1e12"/>
    </linearGradient>
    <linearGradient id="poop_large_angry_03_rim" x1="37" y1="28" x2="91" y2="104" gradientUnits="userSpaceOnUse">
      <stop offset="0" stop-color="#9b5633" stop-opacity="0.9"/>
      <stop offset="1" stop-color="#251009" stop-opacity="0.82"/>
    </linearGradient>
    <radialGradient id="poop_large_angry_03_shine" cx="44" cy="38" r="50" gradientUnits="userSpaceOnUse">
      <stop offset="0" stop-color="#fff7d8" stop-opacity="0.74"/>
      <stop offset="1" stop-color="#fff7d8" stop-opacity="0"/>
    </radialGradient>

  </defs>
  <ellipse cx="64" cy="113" rx="38" ry="9" fill="#1e120b" opacity="0.18"/>
  <g transform="translate(-5 -6) scale(1.09)" opacity="1">
    <path d="M22 87 C22 72 34 61 52 58 C55 47 66 39 80 41 C95 44 105 56 104 73 C114 79 117 93 111 104 C103 119 83 122 64 120 C43 122 23 116 17 102 C13 94 15 90 22 87 Z" fill="url(#poop_large_angry_03_body)" stroke="#351a0d" stroke-width="6" stroke-linejoin="round"/>
    <path d="M35 67 C35 54 48 43 66 42 C84 41 96 52 94 67 C92 80 77 87 60 84 C45 82 36 76 35 67 Z" fill="url(#poop_large_angry_03_rim)" stroke="#351a0d" stroke-width="5.5" stroke-linejoin="round"/>
    <path d="M51 49 C48 37 57 25 72 24 C85 23 94 34 89 46 C84 59 67 62 56 54 C53 52 51 50 51 49 Z" fill="url(#poop_large_angry_03_body)" stroke="#351a0d" stroke-width="5.5" stroke-linejoin="round"/>
    <path d="M60 43 C64 34 78 35 80 43 C83 55 62 58 57 47" fill="none" stroke="#9b5633" stroke-width="4.5" stroke-linecap="round" opacity="0.42"/>
    <path d="M43 65 C55 57 77 57 86 66" fill="none" stroke="#9b5633" stroke-width="5" stroke-linecap="round" opacity="0.35"/>
    <path d="M29 92 C44 101 82 103 101 92" fill="none" stroke="#9b5633" stroke-width="5.5" stroke-linecap="round" opacity="0.32"/>
    <ellipse cx="47" cy="50" rx="10" ry="18" fill="url(#poop_large_angry_03_shine)" transform="rotate(28 47 50)"/>
    <ellipse cx="39" cy="83" rx="7" ry="4" fill="#fff4c7" opacity="0.24" transform="rotate(-18 39 83)"/>
    <path d="M42 73 L58 78" stroke="#1d120d" stroke-width="5" stroke-linecap="round"/>
    <path d="M86 73 L70 78" stroke="#1d120d" stroke-width="5" stroke-linecap="round"/>
    <ellipse cx="51" cy="84" rx="6.5" ry="6.8" fill="#1d120d"/>
    <ellipse cx="77" cy="84" rx="6.5" ry="6.8" fill="#1d120d"/>
    <path d="M54 101 C59 95 70 95 76 101" fill="none" stroke="#1d120d" stroke-width="4.4" stroke-linecap="round"/>
    <ellipse cx="38" cy="94" rx="5.5" ry="3.6" fill="#ff5b50" opacity="0.54"/>
    <ellipse cx="91" cy="94" rx="5.5" ry="3.6" fill="#ff5b50" opacity="0.54"/>
    <path d="M33 44 C27 40 24 34 25 28" fill="none" stroke="#ffcb51" stroke-width="4" stroke-linecap="round" opacity="0.75"/>    <path d="M99 38 C105 34 111 34 116 39" fill="none" stroke="#ffcb51" stroke-width="4" stroke-linecap="round" opacity="0.75"/>
  </g>
</svg>
