<svg xmlns="http://www.w3.org/2000/svg" viewBox="0 0 128 128">
  <defs>
    <linearGradient id="poop_fake_shadow_body" x1="25" y1="24" x2="106" y2="119" gradientUnits="userSpaceOnUse">
      <stop offset="0" stop-color="#2b2b31"/>
      <stop offset="1" stop-color="#050507"/>
    </linearGradient>
    <radialGradient id="poop_fake_shadow_glow" cx="64" cy="72" r="56" gradientUnits="userSpaceOnUse">
      <stop offset="0" stop-color="#000000" stop-opacity="0.2"/>
      <stop offset="1" stop-color="#000000" stop-opacity="0"/>
    </radialGradient>
  </defs>
  <ellipse cx="64" cy="75" rx="59" ry="53" fill="url(#poop_fake_shadow_glow)"/>
  <ellipse cx="64" cy="114" rx="40" ry="9" fill="#000000" opacity="0.22"/>
  <path d="M22 87 C22 72 34 61 52 58 C55 47 66 39 80 41 C95 44 105 56 104 73 C114 79 117 93 111 104 C103 119 83 122 64 120 C43 122 23 116 17 102 C13 94 15 90 22 87 Z" fill="url(#poop_fake_shadow_body)" stroke="#000000" stroke-width="6" stroke-linejoin="round"/>
  <path d="M35 67 C35 54 48 43 66 42 C84 41 96 52 94 67 C92 80 77 87 60 84 C45 82 36 76 35 67 Z" fill="#141419" stroke="#000000" stroke-width="5.5" stroke-linejoin="round"/>
  <path d="M51 49 C48 37 57 25 72 24 C85 23 94 34 89 46 C84 59 67 62 56 54 C53 52 51 50 51 49 Z" fill="#1b1b20" stroke="#000000" stroke-width="5.5" stroke-linejoin="round"/>
  <ellipse cx="50" cy="84" rx="5.5" ry="7" fill="#47474f" opacity="0.62"/>
  <ellipse cx="78" cy="84" rx="5.5" ry="7" fill="#47474f" opacity="0.62"/>
  <path d="M55 97 C59 94 69 94 73 97" fill="none" stroke="#4b4b52" stroke-width="3.8" stroke-linecap="round" opacity="0.55"/>
</svg>
