<svg xmlns="http://www.w3.org/2000/svg" viewBox="0 0 128 128">
  <defs>
    <linearGradient id="fur" x1="31" y1="19" x2="96" y2="93" gradientUnits="userSpaceOnUse">
      <stop offset="0" stop-color="#cfd5dd"/>
      <stop offset="0.58" stop-color="#9aa4b0"/>
      <stop offset="1" stop-color="#747e8b"/>
    </linearGradient>
    <linearGradient id="coat" x1="29" y1="71" x2="98" y2="121" gradientUnits="userSpaceOnUse">
      <stop offset="0" stop-color="#c88950"/>
      <stop offset="1" stop-color="#7d4d2c"/>
    </linearGradient>
    <linearGradient id="muzzle" x1="50" y1="58" x2="78" y2="82" gradientUnits="userSpaceOnUse">
      <stop offset="0" stop-color="#fff6e8"/>
      <stop offset="1" stop-color="#ead8c2"/>
    </linearGradient>
  </defs>
  <g stroke="#2c2331" stroke-width="4.5" stroke-linecap="round" stroke-linejoin="round">
    <path d="M34 118c2-31 13-50 30-50s28 19 30 50c-12 8-48 8-60 0z" fill="url(#coat)"/>
    <path d="M48 74l16 20 16-20" fill="#f5dcc4"/>
    <path d="M35 90c-14 1-20 10-18 23" fill="none"/>
    <path d="M93 90c12 4 17 13 17 23" fill="none"/>
    <circle cx="18" cy="113" r="7" fill="#9aa4b0"/>
    <circle cx="110" cy="113" r="7" fill="#9aa4b0"/>
    <path d="M91 102c15 4 22-8 15-18" fill="none" stroke="#8c96a2" stroke-width="7"/>
    <path d="M38 39L33 18l18 10" fill="url(#fur)"/>
    <path d="M90 39l5-21-18 10" fill="url(#fur)"/>
    <path d="M42 32l-3-8 7 5" fill="#f1a3bd" stroke-width="3"/>
    <path d="M86 32l3-8-7 5" fill="#f1a3bd" stroke-width="3"/>
    <circle cx="64" cy="54" r="35" fill="url(#fur)"/>
    <path d="M40 47c5-3 11-4 17-2" fill="none" stroke="#727b85" stroke-width="3" opacity="0.75"/>
    <path d="M88 47c-5-3-11-4-17-2" fill="none" stroke="#727b85" stroke-width="3" opacity="0.75"/>
    <circle cx="52" cy="56" r="3.7" fill="#2c2331" stroke="none"/>
    <circle cx="76" cy="56" r="3.7" fill="#2c2331" stroke="none"/>
    <path d="M51 65c3-5 10-7 13 0 3-7 10-5 13 0 0 10-26 10-26 0z" fill="url(#muzzle)"/>
    <path d="M59 64l5 4 5-4z" fill="#e87790"/>
    <path d="M64 68v5" fill="none" stroke-width="3"/>
    <path d="M57 74c4 4 10 4 14 0" fill="none" stroke-width="3"/>
    <path d="M35 61c-6-1-12 0-17 3" fill="none" stroke-width="3"/>
    <path d="M35 69c-7 1-12 3-17 7" fill="none" stroke-width="3"/>
    <path d="M93 61c6-1 12 0 17 3" fill="none" stroke-width="3"/>
    <path d="M93 69c7 1 12 3 17 7" fill="none" stroke-width="3"/>
    <ellipse cx="77" cy="38" rx="9" ry="4" fill="#fff" opacity="0.25" stroke="none" transform="rotate(28 77 38)"/>
  </g>
</svg>
