<svg xmlns="http://www.w3.org/2000/svg" viewBox="0 0 128 128">
  <defs>
    <linearGradient id="hood" x1="25" y1="15" x2="100" y2="105" gradientUnits="userSpaceOnUse">
      <stop offset="0" stop-color="#ff7168"/>
      <stop offset="0.55" stop-color="#e83f43"/>
      <stop offset="1" stop-color="#bd2534"/>
    </linearGradient>
    <radialGradient id="skin" cx="48" cy="36" r="55" gradientUnits="userSpaceOnUse">
      <stop offset="0" stop-color="#ffe7ba"/>
      <stop offset="0.72" stop-color="#ffd29d"/>
      <stop offset="1" stop-color="#f3aa78"/>
    </radialGradient>
    <linearGradient id="hoodShade" x1="64" y1="72" x2="64" y2="124" gradientUnits="userSpaceOnUse">
      <stop offset="0" stop-color="#ff5d5e"/>
      <stop offset="1" stop-color="#c42a38"/>
    </linearGradient>
  </defs>
  <g stroke="#2c2331" stroke-width="4.5" stroke-linecap="round" stroke-linejoin="round">
    <path d="M30 74c-10 9-14 27-11 40 12 7 77 7 90 0 3-14-2-31-12-40-11 10-54 10-67 0z" fill="url(#hoodShade)"/>
    <path d="M33 107c-8-2-13-9-14-16-1-7 3-13 9-14 8-1 14 4 15 12l2 14c-3 3-7 5-12 4z" fill="#e83f43"/>
    <path d="M95 107c8-2 13-9 14-16 1-7-3-13-9-14-8-1-14 4-15 12l-2 14c3 3 7 5 12 4z" fill="#d73340"/>
    <circle cx="30" cy="104" r="8" fill="url(#skin)"/>
    <circle cx="98" cy="104" r="8" fill="url(#skin)"/>
    <path d="M25 49C25 27 42 13 64 13s39 14 39 36c0 23-17 42-39 42S25 72 25 49z" fill="url(#hood)"/>
    <path d="M36 54c0-17 11-29 28-29s28 12 28 29c0 20-12 33-28 33S36 74 36 54z" fill="#fff1d8" opacity="0.65" stroke="none"/>
    <path d="M39 55c0-16 10-27 25-27s25 11 25 27c0 19-10 31-25 31S39 74 39 55z" fill="url(#skin)"/>
    <path d="M42 45c10-14 30-15 43-2-6 0-13-2-19-7-6 7-15 9-24 9z" fill="#5a332b"/>
    <circle cx="54" cy="60" r="3.6" fill="#2c2331" stroke="none"/>
    <circle cx="74" cy="60" r="3.6" fill="#2c2331" stroke="none"/>
    <circle cx="51" cy="68" r="5" fill="#ff8d93" opacity="0.5" stroke="none"/>
    <circle cx="77" cy="68" r="5" fill="#ff8d93" opacity="0.5" stroke="none"/>
    <path d="M56 72c4 4 12 4 16 0" fill="none"/>
    <path d="M45 100h38" fill="none" opacity="0.35"/>
    <path d="M88 29c7 7 11 17 9 27" fill="none" stroke="#ff9b94" stroke-width="3" opacity="0.6"/>
  </g>
</svg>
