<svg xmlns="http://www.w3.org/2000/svg" viewBox="0 0 320 480" role="img" aria-label="Cartoon desert mobile background card">
  <defs>
    <linearGradient id="desert_sky" x1="0" y1="0" x2="0" y2="1">
      <stop offset="0%" stop-color="#ffb66f"/>
      <stop offset="52%" stop-color="#ffd887"/>
      <stop offset="100%" stop-color="#fff1b1"/>
    </linearGradient>
    <linearGradient id="desert_sand" x1="0" y1="0" x2="0" y2="1">
      <stop offset="0%" stop-color="#f9cc6b"/>
      <stop offset="100%" stop-color="#e79b43"/>
    </linearGradient>
    <filter id="desert_shadow" x="-20%" y="-20%" width="140%" height="140%">
      <feDropShadow dx="0" dy="8" stdDeviation="8" flood-color="#8c5621" flood-opacity="0.24"/>
    </filter>
    <clipPath id="desert_clip">
      <rect x="8" y="8" width="304" height="464" rx="34"/>
    </clipPath>
  </defs>
  <rect x="8" y="8" width="304" height="464" rx="34" fill="#ffd587" filter="url(#desert_shadow)"/>
  <g clip-path="url(#desert_clip)">
    <rect x="8" y="8" width="304" height="464" fill="url(#desert_sky)"/>
    <circle cx="250" cy="91" r="39" fill="#fff079"/>
    <circle cx="239" cy="79" r="10" fill="#fff8b1" opacity="0.85"/>
    <g fill="#fff3c1" opacity="0.6">
      <ellipse cx="78" cy="104" rx="37" ry="13"/>
      <ellipse cx="112" cy="105" rx="22" ry="10"/>
    </g>
    <path d="M8 282 C68 239 119 260 174 234 C226 210 263 218 312 192 L312 472 L8 472 Z" fill="#eab25c"/>
    <path d="M8 326 C70 291 128 321 190 286 C242 256 277 273 312 252 L312 472 L8 472 Z" fill="url(#desert_sand)"/>
    <path d="M-5 398 C78 355 150 392 225 354 C269 331 294 338 325 321 L325 481 L-5 481 Z" fill="#d98638" opacity="0.62"/>
    <g stroke="#cc8134" stroke-width="4" stroke-linecap="round" opacity="0.58" fill="none">
      <path d="M39 363 C86 346 130 349 173 364"/>
      <path d="M184 407 C224 391 264 390 299 403"/>
      <path d="M58 438 C103 424 144 426 187 440"/>
    </g>
    <g transform="translate(61 238)" stroke="#287f57" stroke-width="5" stroke-linecap="round" stroke-linejoin="round">
      <path d="M36 123 V27 C36 12 54 12 54 27 V123" fill="#35aa73"/>
      <path d="M36 64 C15 62 10 42 20 31 C30 42 29 51 36 52" fill="#35aa73"/>
      <path d="M54 77 C76 75 80 52 69 42 C60 53 61 64 54 65" fill="#35aa73"/>
      <path d="M45 30 V118" stroke="#64d293" stroke-width="3" opacity="0.65"/>
    </g>
    <g transform="translate(230 292) scale(0.75)" stroke="#287f57" stroke-width="5" stroke-linecap="round" stroke-linejoin="round">
      <path d="M36 123 V27 C36 12 54 12 54 27 V123" fill="#35aa73"/>
      <path d="M36 65 C16 62 10 44 20 34 C30 44 29 53 36 54" fill="#35aa73"/>
      <path d="M54 80 C75 78 80 56 69 45 C60 56 61 67 54 68" fill="#35aa73"/>
    </g>
    <g transform="translate(173 221)">
      <path d="M0 59 L41 0 L82 59 Z" fill="#bd7850" stroke="#844e38" stroke-width="5" stroke-linejoin="round"/>
      <path d="M41 0 L82 59 L55 59 Z" fill="#9a6048" opacity="0.55"/>
    </g>
    <g fill="#9f6b44" opacity="0.45">
      <ellipse cx="51" cy="425" rx="18" ry="5"/>
      <ellipse cx="254" cy="382" rx="22" ry="6"/>
      <ellipse cx="155" cy="452" rx="28" ry="7"/>
    </g>
    <rect x="8" y="8" width="304" height="464" rx="34" fill="none" stroke="#ffffff" stroke-width="6" opacity="0.46"/>
    <rect x="14" y="14" width="292" height="452" rx="29" fill="none" stroke="#a9662f" stroke-width="3" opacity="0.24"/>
  </g>
</svg>
