<svg xmlns="http://www.w3.org/2000/svg" viewBox="0 0 320 480" role="img" aria-label="Cartoon subway mobile background card">
  <defs>
    <linearGradient id="subway_wall" x1="0" y1="0" x2="0" y2="1">
      <stop offset="0%" stop-color="#3d516e"/>
      <stop offset="60%" stop-color="#253448"/>
      <stop offset="100%" stop-color="#1d2736"/>
    </linearGradient>
    <radialGradient id="subway_light" cx="50%" cy="20%" r="70%">
      <stop offset="0%" stop-color="#f8fbff" stop-opacity="0.9"/>
      <stop offset="42%" stop-color="#6fb9ff" stop-opacity="0.34"/>
      <stop offset="100%" stop-color="#162234" stop-opacity="0"/>
    </radialGradient>
    <filter id="subway_shadow" x="-20%" y="-20%" width="140%" height="140%">
      <feDropShadow dx="0" dy="8" stdDeviation="8" flood-color="#0c1524" flood-opacity="0.36"/>
    </filter>
    <clipPath id="subway_clip">
      <rect x="8" y="8" width="304" height="464" rx="34"/>
    </clipPath>
  </defs>
  <rect x="8" y="8" width="304" height="464" rx="34" fill="#24364d" filter="url(#subway_shadow)"/>
  <g clip-path="url(#subway_clip)">
    <rect x="8" y="8" width="304" height="464" fill="url(#subway_wall)"/>
    <rect x="8" y="8" width="304" height="464" fill="url(#subway_light)"/>
    <g opacity="0.32" stroke="#9bb7d4" stroke-width="2">
      <path d="M30 68 H290 M30 112 H290 M30 156 H290 M30 200 H290 M30 244 H290"/>
      <path d="M53 42 V265 M96 42 V265 M139 42 V265 M182 42 V265 M225 42 V265 M268 42 V265"/>
    </g>
    <path d="M8 294 H312 V472 H8 Z" fill="#445063"/>
    <path d="M8 318 H312" stroke="#f8cf64" stroke-width="12"/>
    <path d="M8 337 H312" stroke="#2a3341" stroke-width="6" opacity="0.6"/>
    <path d="M47 472 L125 318 H196 L273 472 Z" fill="#1a202c"/>
    <path d="M80 472 L136 318 M240 472 L184 318" stroke="#99a3ad" stroke-width="6" stroke-linecap="round"/>
    <path d="M160 332 L160 464" stroke="#d8dde5" stroke-width="4" stroke-dasharray="10 16" stroke-linecap="round" opacity="0.45"/>
    <g transform="translate(41 173)" stroke="#202b3c" stroke-width="5" stroke-linejoin="round">
      <rect x="0" y="0" width="238" height="128" rx="22" fill="#f2f6fb"/>
      <path d="M0 80 H238 V106 C238 118 228 128 216 128 H22 C10 128 0 118 0 106 Z" fill="#50b5ea"/>
      <rect x="20" y="20" width="54" height="42" rx="8" fill="#8fd9ff"/>
      <rect x="92" y="20" width="54" height="42" rx="8" fill="#8fd9ff"/>
      <rect x="164" y="20" width="54" height="42" rx="8" fill="#8fd9ff"/>
      <circle cx="37" cy="113" r="11" fill="#253042"/>
      <circle cx="201" cy="113" r="11" fill="#253042"/>
      <rect x="96" y="73" width="46" height="55" rx="6" fill="#dfe8f0"/>
      <path d="M119 73 V128" stroke="#a2adba" stroke-width="3"/>
      <circle cx="18" cy="90" r="9" fill="#ffec7e" stroke="#cfa74c"/>
      <circle cx="220" cy="90" r="9" fill="#ffec7e" stroke="#cfa74c"/>
    </g>
    <g fill="#fff4a6" stroke="#e3b84f" stroke-width="3">
      <rect x="60" y="67" width="64" height="30" rx="9"/>
      <rect x="196" y="67" width="64" height="30" rx="9"/>
    </g>
    <path d="M74 82 H110 M210 82 H246" stroke="#705d34" stroke-width="6" stroke-linecap="round"/>
    <path d="M23 269 C82 249 232 249 296 269" stroke="#93d8ff" stroke-width="5" fill="none" opacity="0.45"/>
    <rect x="8" y="8" width="304" height="464" rx="34" fill="none" stroke="#ffffff" stroke-width="6" opacity="0.34"/>
    <rect x="14" y="14" width="292" height="452" rx="29" fill="none" stroke="#9abde3" stroke-width="3" opacity="0.18"/>
  </g>
</svg>
