<svg xmlns="http://www.w3.org/2000/svg" viewBox="0 0 128 128" role="img" aria-label="Cartoon explosion effect icon">
  <defs>
    <radialGradient id="explosion_core" cx="50%" cy="50%" r="62%">
      <stop offset="0%" stop-color="#fff7a8"/>
      <stop offset="42%" stop-color="#ffd447"/>
      <stop offset="72%" stop-color="#ff7737"/>
      <stop offset="100%" stop-color="#df2f2f"/>
    </radialGradient>
    <filter id="explosion_shadow" x="-20%" y="-20%" width="140%" height="140%">
      <feDropShadow dx="0" dy="5" stdDeviation="4" flood-color="#7a1d22" flood-opacity="0.28"/>
    </filter>
  </defs>
  <g filter="url(#explosion_shadow)">
    <path d="M63 7 L76 34 L105 20 L95 50 L123 61 L93 75 L107 108 L76 94 L64 124 L51 94 L21 108 L34 77 L5 64 L34 51 L22 20 L52 34 Z" fill="#ff6a32" stroke="#8e2630" stroke-width="5" stroke-linejoin="round"/>
    <path d="M64 20 L74 45 L100 38 L86 61 L105 79 L78 80 L73 107 L60 84 L35 96 L45 72 L21 59 L48 51 L48 26 Z" fill="#ffbf3e" stroke="#c6532b" stroke-width="4" stroke-linejoin="round"/>
    <path d="M64 36 L72 55 L91 55 L77 68 L83 89 L64 78 L46 90 L51 69 L36 56 L56 55 Z" fill="url(#explosion_core)"/>
    <circle cx="64" cy="64" r="15" fill="#fff7b7" opacity="0.92"/>
  </g>
  <g fill="#ffd45a" stroke="#a13b2e" stroke-width="3" stroke-linecap="round">
    <path d="M19 27 L8 17"/>
    <path d="M104 28 L119 16"/>
    <path d="M18 101 L5 114"/>
    <path d="M108 101 L121 114"/>
  </g>
</svg>
