<svg xmlns="http://www.w3.org/2000/svg" viewBox="0 0 128 128" role="img" aria-label="Cartoon star ring effect icon">
  <defs>
    <filter id="star_ring_shadow" x="-20%" y="-20%" width="140%" height="140%">
      <feDropShadow dx="0" dy="4" stdDeviation="3" flood-color="#4c3a86" flood-opacity="0.28"/>
    </filter>
  </defs>
  <g filter="url(#star_ring_shadow)">
    <ellipse cx="64" cy="66" rx="46" ry="25" fill="none" stroke="#fff0a8" stroke-width="8" opacity="0.95"/>
    <ellipse cx="64" cy="66" rx="38" ry="18" fill="none" stroke="#81e6ff" stroke-width="4" opacity="0.78"/>
    <path d="M64 9 l8 18 20 3 -15 14 4 20 -17 -10 -18 10 4 -20 -15 -14 21 -3z" fill="#ffd84f" stroke="#b5772a" stroke-width="4" stroke-linejoin="round"/>
    <path d="M105 52 l5 11 12 2 -9 8 2 12 -10 -6 -11 6 2 -12 -9 -8 12 -2z" fill="#ff8fd1" stroke="#a34d85" stroke-width="3" stroke-linejoin="round"/>
    <path d="M22 54 l5 11 12 2 -9 8 2 12 -10 -6 -11 6 2 -12 -9 -8 12 -2z" fill="#9deeff" stroke="#4a90b4" stroke-width="3" stroke-linejoin="round"/>
    <path d="M42 92 l4 9 10 1 -7 7 2 10 -9 -5 -9 5 2 -10 -7 -7 10 -1z" fill="#ffffff" stroke="#94a9d8" stroke-width="3" stroke-linejoin="round"/>
    <path d="M88 91 l4 9 10 1 -7 7 2 10 -9 -5 -9 5 2 -10 -7 -7 10 -1z" fill="#b3ff92" stroke="#66a64d" stroke-width="3" stroke-linejoin="round"/>
  </g>
  <g stroke="#fffbe0" stroke-width="4" stroke-linecap="round">
    <path d="M18 28 L18 39 M12 34 H24"/>
    <path d="M111 21 L111 34 M104 28 H118"/>
    <path d="M64 115 L64 124 M59 120 H69"/>
  </g>
</svg>
