<svg xmlns="http://www.w3.org/2000/svg" width="128" height="192" viewBox="0 0 128 192">
<g>
    <path d="M37 22 C42 8 86 8 91 22 L108 148 C111 171 97 185 64 185 C31 185 17 171 20 148 Z" fill="#ff334e" stroke="#121212" stroke-width="6"/>
    <path d="M45 42 C48 29 80 29 83 42 L91 73 C75 82 53 82 37 73 Z" fill="#1be9ff" stroke="#082a3d" stroke-width="5"/>
    <rect x="36" y="86" width="56" height="54" rx="16" fill="#e91d36" stroke="#81101d" stroke-width="4"/>
    <rect x="20" y="93" width="16" height="45" rx="7" fill="#222"/>
    <rect x="92" y="93" width="16" height="45" rx="7" fill="#222"/>
    <rect x="30" y="149" width="20" height="28" rx="8" fill="#202020"/>
    <rect x="78" y="149" width="20" height="28" rx="8" fill="#202020"/>
    <circle cx="43" cy="28" r="7" fill="#fff6bf"/><circle cx="85" cy="28" r="7" fill="#fff6bf"/>
    <path d="M34 19 C49 2 79 2 94 19" fill="none" stroke="#ffb8c0" stroke-width="5" stroke-linecap="round"/>
    <path d="M42 47 C54 38 75 38 86 47" fill="none" stroke="#fff" stroke-width="6" stroke-linecap="round" opacity="0.55"/>
  </g>

</svg>
